STARTFONT 2.2
FONT -dse-7x13-medium-r-normal--13-130-72-72-c-70-iso10646-1
SIZE 15 66 61
FONTBOUNDINGBOX 7 13 0 -2
STARTPROPERTIES 11
SPACING "m"
FOUNDRY "dse"
FAMILY_NAME "7x13"
WEIGHT_NAME "medium"
SLANT "r"
PIXEL_SIZE 13
POINT_SIZE 153
RESOLUTION_X 66
RESOLUTION_Y 61
FONT_ASCENT 11
FONT_DESCENT 2
ENDPROPERTIES
CHARS 287
STARTCHAR space
ENCODING 32
BBX 7 1 0 0
SWIDTH 509 0
DWIDTH 7 0
BITMAP
00
ENDCHAR
STARTCHAR exclam
ENCODING 33
BBX 7 9 0 0
SWIDTH 509 0
DWIDTH 7 0
BITMAP
10
10
10
10
10
10
00
00
10
ENDCHAR
STARTCHAR quotedbl
ENCODING 34
BBX 7 9 0 0
SWIDTH 509 0
DWIDTH 7 0
BITMAP
28
28
28
00
00
00
00
00
00
ENDCHAR
STARTCHAR numbersign
ENCODING 35
BBX 7 9 0 0
SWIDTH 509 0
DWIDTH 7 0
BITMAP
28
28
7C
28
28
28
7C
28
28
ENDCHAR
STARTCHAR dollar
ENCODING 36
BBX 7 9 0 0
SWIDTH 509 0
DWIDTH 7 0
BITMAP
10
3C
50
50
38
14
14
78
10
ENDCHAR
STARTCHAR percent
ENCODING 37
BBX 7 9 0 0
SWIDTH 509 0
DWIDTH 7 0
BITMAP
30
50
64
08
10
20
4C
14
18
ENDCHAR
STARTCHAR ampersand
ENCODING 38
BBX 7 9 0 0
SWIDTH 509 0
DWIDTH 7 0
BITMAP
20
50
50
20
20
54
54
48
34
ENDCHAR
STARTCHAR quotesingle
ENCODING 39
BBX 7 9 0 0
SWIDTH 509 0
DWIDTH 7 0
BITMAP
10
10
10
00
00
00
00
00
00
ENDCHAR
STARTCHAR parenleft
ENCODING 40
BBX 7 11 0 -1
SWIDTH 509 0
DWIDTH 7 0
BITMAP
08
10
20
20
20
20
20
20
20
10
08
ENDCHAR
STARTCHAR parenright
ENCODING 41
BBX 7 11 0 -1
SWIDTH 509 0
DWIDTH 7 0
BITMAP
20
10
08
08
08
08
08
08
08
10
20
ENDCHAR
STARTCHAR asterisk
ENCODING 42
BBX 7 9 0 0
SWIDTH 509 0
DWIDTH 7 0
BITMAP
00
00
10
54
38
54
10
00
00
ENDCHAR
STARTCHAR plus
ENCODING 43
BBX 7 9 0 0
SWIDTH 509 0
DWIDTH 7 0
BITMAP
00
00
10
10
7C
10
10
00
00
ENDCHAR
STARTCHAR comma
ENCODING 44
BBX 7 11 0 -2
SWIDTH 509 0
DWIDTH 7 0
BITMAP
00
00
00
00
00
00
00
30
30
10
20
ENDCHAR
STARTCHAR hyphen
ENCODING 45
BBX 7 9 0 0
SWIDTH 509 0
DWIDTH 7 0
BITMAP
00
00
00
00
7C
00
00
00
00
ENDCHAR
STARTCHAR period
ENCODING 46
BBX 7 9 0 0
SWIDTH 509 0
DWIDTH 7 0
BITMAP
00
00
00
00
00
00
00
30
30
ENDCHAR
STARTCHAR slash
ENCODING 47
BBX 7 11 0 -1
SWIDTH 509 0
DWIDTH 7 0
BITMAP
00
00
04
08
08
10
20
20
40
00
00
ENDCHAR
STARTCHAR zero
ENCODING 48
BBX 7 9 0 0
SWIDTH 509 0
DWIDTH 7 0
BITMAP
38
44
44
4C
54
64
44
44
38
ENDCHAR
STARTCHAR one
ENCODING 49
BBX 7 9 0 0
SWIDTH 509 0
DWIDTH 7 0
BITMAP
10
30
10
10
10
10
10
10
38
ENDCHAR
STARTCHAR two
ENCODING 50
BBX 7 9 0 0
SWIDTH 509 0
DWIDTH 7 0
BITMAP
38
44
04
04
18
20
40
40
7C
ENDCHAR
STARTCHAR three
ENCODING 51
BBX 7 9 0 0
SWIDTH 509 0
DWIDTH 7 0
BITMAP
7C
04
04
08
18
04
04
44
38
ENDCHAR
STARTCHAR four
ENCODING 52
BBX 7 9 0 0
SWIDTH 509 0
DWIDTH 7 0
BITMAP
08
18
28
48
48
7C
08
08
08
ENDCHAR
STARTCHAR five
ENCODING 53
BBX 7 9 0 0
SWIDTH 509 0
DWIDTH 7 0
BITMAP
7C
40
40
78
04
04
04
44
38
ENDCHAR
STARTCHAR six
ENCODING 54
BBX 7 9 0 0
SWIDTH 509 0
DWIDTH 7 0
BITMAP
1C
20
40
40
78
44
44
44
38
ENDCHAR
STARTCHAR seven
ENCODING 55
BBX 7 9 0 0
SWIDTH 509 0
DWIDTH 7 0
BITMAP
7C
04
04
08
10
20
20
20
20
ENDCHAR
STARTCHAR eight
ENCODING 56
BBX 7 9 0 0
SWIDTH 509 0
DWIDTH 7 0
BITMAP
38
44
44
44
38
44
44
44
38
ENDCHAR
STARTCHAR nine
ENCODING 57
BBX 7 9 0 0
SWIDTH 509 0
DWIDTH 7 0
BITMAP
38
44
44
44
3C
04
04
08
70
ENDCHAR
STARTCHAR colon
ENCODING 58
BBX 7 9 0 0
SWIDTH 509 0
DWIDTH 7 0
BITMAP
00
00
30
30
00
00
00
30
30
ENDCHAR
STARTCHAR semicolon
ENCODING 59
BBX 7 11 0 -2
SWIDTH 509 0
DWIDTH 7 0
BITMAP
00
00
00
00
00
00
00
30
30
10
20
ENDCHAR
STARTCHAR less
ENCODING 60
BBX 7 9 0 0
SWIDTH 509 0
DWIDTH 7 0
BITMAP
04
08
10
20
40
20
10
08
04
ENDCHAR
STARTCHAR equal
ENCODING 61
BBX 7 9 0 0
SWIDTH 509 0
DWIDTH 7 0
BITMAP
00
00
00
7C
00
7C
00
00
00
ENDCHAR
STARTCHAR greater
ENCODING 62
BBX 7 9 0 0
SWIDTH 509 0
DWIDTH 7 0
BITMAP
40
20
10
08
04
08
10
20
40
ENDCHAR
STARTCHAR question
ENCODING 63
BBX 7 9 0 0
SWIDTH 509 0
DWIDTH 7 0
BITMAP
38
44
04
08
10
10
10
00
10
ENDCHAR
STARTCHAR at
ENCODING 64
BBX 7 9 0 0
SWIDTH 509 0
DWIDTH 7 0
BITMAP
38
44
44
4C
54
54
5C
40
3C
ENDCHAR
STARTCHAR A
ENCODING 65
BBX 7 9 0 0
SWIDTH 509 0
DWIDTH 7 0
BITMAP
10
38
44
44
44
7C
44
44
44
ENDCHAR
STARTCHAR B
ENCODING 66
BBX 7 9 0 0
SWIDTH 509 0
DWIDTH 7 0
BITMAP
78
44
44
44
78
44
44
44
78
ENDCHAR
STARTCHAR C
ENCODING 67
BBX 7 9 0 0
SWIDTH 509 0
DWIDTH 7 0
BITMAP
38
44
40
40
40
40
40
44
38
ENDCHAR
STARTCHAR D
ENCODING 68
BBX 7 9 0 0
SWIDTH 509 0
DWIDTH 7 0
BITMAP
78
44
44
44
44
44
44
44
78
ENDCHAR
STARTCHAR E
ENCODING 69
BBX 7 9 0 0
SWIDTH 509 0
DWIDTH 7 0
BITMAP
7C
40
40
40
78
40
40
40
7C
ENDCHAR
STARTCHAR F
ENCODING 70
BBX 7 9 0 0
SWIDTH 509 0
DWIDTH 7 0
BITMAP
7C
40
40
40
78
40
40
40
40
ENDCHAR
STARTCHAR G
ENCODING 71
BBX 7 9 0 0
SWIDTH 509 0
DWIDTH 7 0
BITMAP
38
44
40
40
40
5C
44
44
3C
ENDCHAR
STARTCHAR H
ENCODING 72
BBX 7 9 0 0
SWIDTH 509 0
DWIDTH 7 0
BITMAP
44
44
44
44
7C
44
44
44
44
ENDCHAR
STARTCHAR I
ENCODING 73
BBX 7 12 0 0
SWIDTH 509 0
DWIDTH 7 0
BITMAP
00
00
00
38
10
10
10
10
10
10
10
38
ENDCHAR
STARTCHAR J
ENCODING 74
BBX 7 9 0 0
SWIDTH 509 0
DWIDTH 7 0
BITMAP
04
04
04
04
04
04
04
44
38
ENDCHAR
STARTCHAR K
ENCODING 75
BBX 7 9 0 0
SWIDTH 509 0
DWIDTH 7 0
BITMAP
44
44
48
50
60
50
48
44
44
ENDCHAR
STARTCHAR L
ENCODING 76
BBX 7 9 0 0
SWIDTH 509 0
DWIDTH 7 0
BITMAP
40
40
40
40
40
40
40
40
7C
ENDCHAR
STARTCHAR M
ENCODING 77
BBX 7 9 0 0
SWIDTH 509 0
DWIDTH 7 0
BITMAP
44
6C
54
54
54
44
44
44
44
ENDCHAR
STARTCHAR N
ENCODING 78
BBX 7 12 0 0
SWIDTH 509 0
DWIDTH 7 0
BITMAP
00
00
00
44
64
64
54
54
4C
4C
44
44
ENDCHAR
STARTCHAR O
ENCODING 79
BBX 7 12 0 0
SWIDTH 509 0
DWIDTH 7 0
BITMAP
00
00
00
38
44
44
44
44
44
44
44
38
ENDCHAR
STARTCHAR P
ENCODING 80
BBX 7 9 0 0
SWIDTH 509 0
DWIDTH 7 0
BITMAP
78
44
44
44
78
40
40
40
40
ENDCHAR
STARTCHAR Q
ENCODING 81
BBX 7 11 0 -2
SWIDTH 509 0
DWIDTH 7 0
BITMAP
38
44
44
44
44
44
54
48
34
00
00
ENDCHAR
STARTCHAR R
ENCODING 82
BBX 7 9 0 0
SWIDTH 509 0
DWIDTH 7 0
BITMAP
78
44
44
44
78
50
48
44
44
ENDCHAR
STARTCHAR S
ENCODING 83
BBX 7 9 0 0
SWIDTH 509 0
DWIDTH 7 0
BITMAP
38
44
40
40
38
04
04
44
38
ENDCHAR
STARTCHAR T
ENCODING 84
BBX 7 9 0 0
SWIDTH 509 0
DWIDTH 7 0
BITMAP
7C
10
10
10
10
10
10
10
10
ENDCHAR
STARTCHAR U
ENCODING 85
BBX 7 12 0 0
SWIDTH 509 0
DWIDTH 7 0
BITMAP
00
00
00
44
44
44
44
44
44
44
44
38
ENDCHAR
STARTCHAR V
ENCODING 86
BBX 7 9 0 0
SWIDTH 509 0
DWIDTH 7 0
BITMAP
44
44
44
44
44
28
28
10
10
ENDCHAR
STARTCHAR W
ENCODING 87
BBX 7 9 0 0
SWIDTH 509 0
DWIDTH 7 0
BITMAP
44
44
44
44
54
54
54
6C
44
ENDCHAR
STARTCHAR X
ENCODING 88
BBX 7 9 0 0
SWIDTH 509 0
DWIDTH 7 0
BITMAP
44
44
44
28
10
28
44
44
44
ENDCHAR
STARTCHAR Y
ENCODING 89
BBX 7 12 0 0
SWIDTH 509 0
DWIDTH 7 0
BITMAP
00
00
00
44
44
44
28
10
10
10
10
10
ENDCHAR
STARTCHAR Z
ENCODING 90
BBX 7 9 0 0
SWIDTH 509 0
DWIDTH 7 0
BITMAP
7C
04
04
08
10
20
40
40
7C
ENDCHAR
STARTCHAR bracketleft
ENCODING 91
BBX 7 11 0 -1
SWIDTH 509 0
DWIDTH 7 0
BITMAP
78
60
60
60
60
60
60
60
60
60
78
ENDCHAR
STARTCHAR backslash
ENCODING 92
BBX 7 11 0 -1
SWIDTH 509 0
DWIDTH 7 0
BITMAP
00
00
40
20
20
10
08
08
04
00
00
ENDCHAR
STARTCHAR bracketright
ENCODING 93
BBX 7 11 0 -1
SWIDTH 509 0
DWIDTH 7 0
BITMAP
3C
0C
0C
0C
0C
0C
0C
0C
0C
0C
3C
ENDCHAR
STARTCHAR asciicircum
ENCODING 94
BBX 7 9 0 0
SWIDTH 509 0
DWIDTH 7 0
BITMAP
10
28
44
00
00
00
00
00
00
ENDCHAR
STARTCHAR underscore
ENCODING 95
BBX 7 2 0 -1
SWIDTH 509 0
DWIDTH 7 0
BITMAP
00
7C
ENDCHAR
STARTCHAR grave
ENCODING 96
BBX 7 9 0 0
SWIDTH 509 0
DWIDTH 7 0
BITMAP
20
10
08
00
00
00
00
00
00
ENDCHAR
STARTCHAR a
ENCODING 97
BBX 7 10 0 0
SWIDTH 509 0
DWIDTH 7 0
BITMAP
00
00
00
38
04
04
3C
44
44
3C
ENDCHAR
STARTCHAR b
ENCODING 98
BBX 7 9 0 0
SWIDTH 509 0
DWIDTH 7 0
BITMAP
40
40
78
44
44
44
44
44
78
ENDCHAR
STARTCHAR c
ENCODING 99
BBX 7 12 0 -3
SWIDTH 509 0
DWIDTH 7 0
BITMAP
00
00
3C
40
40
40
40
40
3C
00
00
00
ENDCHAR
STARTCHAR d
ENCODING 100
BBX 7 9 0 0
SWIDTH 509 0
DWIDTH 7 0
BITMAP
04
04
3C
44
44
44
44
44
3C
ENDCHAR
STARTCHAR e
ENCODING 101
BBX 7 10 0 0
SWIDTH 509 0
DWIDTH 7 0
BITMAP
00
00
00
38
44
44
7C
40
40
3C
ENDCHAR
STARTCHAR f
ENCODING 102
BBX 7 9 0 0
SWIDTH 509 0
DWIDTH 7 0
BITMAP
18
24
20
70
20
20
20
20
20
ENDCHAR
STARTCHAR g
ENCODING 103
BBX 7 11 0 -2
SWIDTH 509 0
DWIDTH 7 0
BITMAP
00
00
3C
44
44
44
44
3C
04
04
78
ENDCHAR
STARTCHAR h
ENCODING 104
BBX 7 9 0 0
SWIDTH 509 0
DWIDTH 7 0
BITMAP
40
40
78
44
44
44
44
44
44
ENDCHAR
STARTCHAR i
ENCODING 105
BBX 7 10 0 0
SWIDTH 509 0
DWIDTH 7 0
BITMAP
00
00
00
30
10
10
10
10
10
38
ENDCHAR
STARTCHAR j
ENCODING 106
BBX 7 11 0 -2
SWIDTH 509 0
DWIDTH 7 0
BITMAP
08
00
18
08
08
08
08
08
08
48
30
ENDCHAR
STARTCHAR k
ENCODING 107
BBX 7 9 0 0
SWIDTH 509 0
DWIDTH 7 0
BITMAP
40
40
44
48
50
60
50
48
44
ENDCHAR
STARTCHAR l
ENCODING 108
BBX 7 9 0 0
SWIDTH 509 0
DWIDTH 7 0
BITMAP
30
10
10
10
10
10
10
10
38
ENDCHAR
STARTCHAR m
ENCODING 109
BBX 7 9 0 0
SWIDTH 509 0
DWIDTH 7 0
BITMAP
00
00
6C
54
54
54
54
44
44
ENDCHAR
STARTCHAR n
ENCODING 110
BBX 7 10 0 0
SWIDTH 509 0
DWIDTH 7 0
BITMAP
00
00
00
78
44
44
44
44
44
44
ENDCHAR
STARTCHAR o
ENCODING 111
BBX 7 10 0 0
SWIDTH 509 0
DWIDTH 7 0
BITMAP
00
00
00
38
44
44
44
44
44
38
ENDCHAR
STARTCHAR p
ENCODING 112
BBX 7 11 0 -2
SWIDTH 509 0
DWIDTH 7 0
BITMAP
00
00
78
44
44
44
44
78
40
40
40
ENDCHAR
STARTCHAR q
ENCODING 113
BBX 7 11 0 -2
SWIDTH 509 0
DWIDTH 7 0
BITMAP
00
00
3C
44
44
44
44
3C
04
04
04
ENDCHAR
STARTCHAR r
ENCODING 114
BBX 7 9 0 0
SWIDTH 509 0
DWIDTH 7 0
BITMAP
00
00
5C
60
40
40
40
40
40
ENDCHAR
STARTCHAR s
ENCODING 115
BBX 7 9 0 0
SWIDTH 509 0
DWIDTH 7 0
BITMAP
00
00
3C
40
40
38
04
04
78
ENDCHAR
STARTCHAR t
ENCODING 116
BBX 7 9 0 0
SWIDTH 509 0
DWIDTH 7 0
BITMAP
20
20
78
20
20
20
20
24
18
ENDCHAR
STARTCHAR u
ENCODING 117
BBX 7 10 0 0
SWIDTH 509 0
DWIDTH 7 0
BITMAP
00
00
00
44
44
44
44
44
4C
34
ENDCHAR
STARTCHAR v
ENCODING 118
BBX 7 9 0 0
SWIDTH 509 0
DWIDTH 7 0
BITMAP
00
00
44
44
44
44
44
28
10
ENDCHAR
STARTCHAR w
ENCODING 119
BBX 7 9 0 0
SWIDTH 509 0
DWIDTH 7 0
BITMAP
00
00
44
44
44
54
54
54
6C
ENDCHAR
STARTCHAR x
ENCODING 120
BBX 7 9 0 0
SWIDTH 509 0
DWIDTH 7 0
BITMAP
00
00
44
44
28
10
28
44
44
ENDCHAR
STARTCHAR y
ENCODING 121
BBX 7 12 0 -2
SWIDTH 509 0
DWIDTH 7 0
BITMAP
00
00
00
44
44
44
44
44
3C
04
04
38
ENDCHAR
STARTCHAR z
ENCODING 122
BBX 7 9 0 0
SWIDTH 509 0
DWIDTH 7 0
BITMAP
00
00
7C
04
08
10
20
40
7C
ENDCHAR
STARTCHAR braceleft
ENCODING 123
BBX 7 11 0 -1
SWIDTH 509 0
DWIDTH 7 0
BITMAP
1C
30
30
30
30
60
30
30
30
30
1C
ENDCHAR
STARTCHAR bar
ENCODING 124
BBX 7 11 0 -1
SWIDTH 509 0
DWIDTH 7 0
BITMAP
10
10
10
10
10
10
10
10
10
10
10
ENDCHAR
STARTCHAR braceright
ENCODING 125
BBX 7 11 0 -1
SWIDTH 509 0
DWIDTH 7 0
BITMAP
70
18
18
18
18
0C
18
18
18
18
70
ENDCHAR
STARTCHAR asciitilde
ENCODING 126
BBX 7 9 0 0
SWIDTH 509 0
DWIDTH 7 0
BITMAP
24
54
48
00
00
00
00
00
00
ENDCHAR
STARTCHAR uni00A0
ENCODING 160
BBX 7 1 0 0
SWIDTH 509 0
DWIDTH 7 0
BITMAP
00
ENDCHAR
STARTCHAR exclamdown
ENCODING 161
BBX 7 9 0 0
SWIDTH 509 0
DWIDTH 7 0
BITMAP
10
00
00
10
10
10
10
10
10
ENDCHAR
STARTCHAR cent
ENCODING 162
BBX 7 9 0 0
SWIDTH 509 0
DWIDTH 7 0
BITMAP
10
10
3C
50
50
50
3C
10
10
ENDCHAR
STARTCHAR sterling
ENCODING 163
BBX 7 9 0 0
SWIDTH 509 0
DWIDTH 7 0
BITMAP
18
24
20
20
70
20
20
20
5C
ENDCHAR
STARTCHAR currency
ENCODING 164
BBX 7 9 0 0
SWIDTH 509 0
DWIDTH 7 0
BITMAP
00
00
44
38
28
38
44
00
00
ENDCHAR
STARTCHAR yen
ENCODING 165
BBX 7 9 0 0
SWIDTH 509 0
DWIDTH 7 0
BITMAP
44
44
44
28
10
7C
10
10
10
ENDCHAR
STARTCHAR brokenbar
ENCODING 166
BBX 7 11 0 -1
SWIDTH 509 0
DWIDTH 7 0
BITMAP
10
10
10
10
00
00
00
10
10
10
10
ENDCHAR
STARTCHAR section
ENCODING 167
BBX 7 11 0 -1
SWIDTH 509 0
DWIDTH 7 0
BITMAP
3C
40
40
38
44
44
44
38
04
04
78
ENDCHAR
STARTCHAR dieresis
ENCODING 168
BBX 7 9 0 0
SWIDTH 509 0
DWIDTH 7 0
BITMAP
44
00
00
00
00
00
00
00
00
ENDCHAR
STARTCHAR copyright
ENCODING 169
BBX 7 9 0 0
SWIDTH 509 0
DWIDTH 7 0
BITMAP
38
44
9A
A2
A2
A2
9A
44
38
ENDCHAR
STARTCHAR ordfeminine
ENCODING 170
BBX 7 10 0 0
SWIDTH 509 0
DWIDTH 7 0
BITMAP
78
04
3C
44
3C
00
7C
00
00
00
ENDCHAR
STARTCHAR guillemotleft
ENCODING 171
BBX 7 9 0 0
SWIDTH 509 0
DWIDTH 7 0
BITMAP
00
12
24
48
90
48
24
12
00
ENDCHAR
STARTCHAR logicalnot
ENCODING 172
BBX 7 9 0 0
SWIDTH 509 0
DWIDTH 7 0
BITMAP
00
00
00
7C
04
04
00
00
00
ENDCHAR
STARTCHAR uni00AD
ENCODING 173
BBX 7 9 0 0
SWIDTH 509 0
DWIDTH 7 0
BITMAP
00
00
00
00
7C
00
00
00
00
ENDCHAR
STARTCHAR registered
ENCODING 174
BBX 7 9 0 0
SWIDTH 509 0
DWIDTH 7 0
BITMAP
38
44
B2
AA
B2
AA
AA
44
38
ENDCHAR
STARTCHAR macron
ENCODING 175
BBX 7 9 0 0
SWIDTH 509 0
DWIDTH 7 0
BITMAP
7C
00
00
00
00
00
00
00
00
ENDCHAR
STARTCHAR degree
ENCODING 176
BBX 7 9 0 0
SWIDTH 509 0
DWIDTH 7 0
BITMAP
10
28
28
10
00
00
00
00
00
ENDCHAR
STARTCHAR plusminus
ENCODING 177
BBX 7 9 0 0
SWIDTH 509 0
DWIDTH 7 0
BITMAP
00
10
10
7C
10
10
00
7C
00
ENDCHAR
STARTCHAR uni00B2
ENCODING 178
BBX 7 10 0 0
SWIDTH 509 0
DWIDTH 7 0
BITMAP
38
44
18
20
7C
00
00
00
00
00
ENDCHAR
STARTCHAR uni00B3
ENCODING 179
BBX 7 10 0 0
SWIDTH 509 0
DWIDTH 7 0
BITMAP
7C
08
18
44
38
00
00
00
00
00
ENDCHAR
STARTCHAR acute
ENCODING 180
BBX 7 9 0 0
SWIDTH 509 0
DWIDTH 7 0
BITMAP
08
10
20
00
00
00
00
00
00
ENDCHAR
STARTCHAR mu
ENCODING 181
BBX 7 11 0 -2
SWIDTH 509 0
DWIDTH 7 0
BITMAP
00
00
44
44
44
44
44
6C
54
40
40
ENDCHAR
STARTCHAR paragraph
ENCODING 182
BBX 7 9 0 0
SWIDTH 509 0
DWIDTH 7 0
BITMAP
3C
54
54
54
3C
14
14
14
14
ENDCHAR
STARTCHAR periodcentered
ENCODING 183
BBX 7 9 0 0
SWIDTH 509 0
DWIDTH 7 0
BITMAP
00
00
00
00
10
00
00
00
00
ENDCHAR
STARTCHAR cedilla
ENCODING 184
BBX 7 11 0 -2
SWIDTH 509 0
DWIDTH 7 0
BITMAP
00
00
00
00
00
00
00
00
08
08
30
ENDCHAR
STARTCHAR uni00B9
ENCODING 185
BBX 7 10 0 0
SWIDTH 509 0
DWIDTH 7 0
BITMAP
10
30
10
10
38
00
00
00
00
00
ENDCHAR
STARTCHAR ordmasculine
ENCODING 186
BBX 7 10 0 0
SWIDTH 509 0
DWIDTH 7 0
BITMAP
38
44
44
44
38
00
38
00
00
00
ENDCHAR
STARTCHAR guillemotright
ENCODING 187
BBX 7 9 0 0
SWIDTH 509 0
DWIDTH 7 0
BITMAP
00
90
48
24
12
24
48
90
00
ENDCHAR
STARTCHAR onequarter
ENCODING 188
BBX 7 11 0 -1
SWIDTH 509 0
DWIDTH 7 0
BITMAP
20
60
20
74
08
10
20
48
18
3C
08
ENDCHAR
STARTCHAR onehalf
ENCODING 189
BBX 7 11 0 -1
SWIDTH 509 0
DWIDTH 7 0
BITMAP
20
60
20
74
08
10
38
44
08
1C
00
ENDCHAR
STARTCHAR threequarters
ENCODING 190
BBX 7 11 0 -1
SWIDTH 509 0
DWIDTH 7 0
BITMAP
70
20
10
64
08
10
20
48
18
3C
08
ENDCHAR
STARTCHAR questiondown
ENCODING 191
BBX 7 9 0 0
SWIDTH 509 0
DWIDTH 7 0
BITMAP
10
00
00
10
10
20
40
44
38
ENDCHAR
STARTCHAR Agrave
ENCODING 192
BBX 7 12 0 0
SWIDTH 509 0
DWIDTH 7 0
BITMAP
20
10
00
10
38
44
44
44
7C
44
44
44
ENDCHAR
STARTCHAR Aacute
ENCODING 193
BBX 7 12 0 0
SWIDTH 509 0
DWIDTH 7 0
BITMAP
08
10
00
10
38
44
44
44
7C
44
44
44
ENDCHAR
STARTCHAR Acircumflex
ENCODING 194
BBX 7 12 0 0
SWIDTH 509 0
DWIDTH 7 0
BITMAP
10
28
00
10
38
44
44
44
7C
44
44
44
ENDCHAR
STARTCHAR Atilde
ENCODING 195
BBX 7 12 0 0
SWIDTH 509 0
DWIDTH 7 0
BITMAP
34
58
00
10
38
44
44
44
7C
44
44
44
ENDCHAR
STARTCHAR Adieresis
ENCODING 196
BBX 7 12 0 0
SWIDTH 509 0
DWIDTH 7 0
BITMAP
00
44
00
10
38
44
44
44
7C
44
44
44
ENDCHAR
STARTCHAR Aring
ENCODING 197
BBX 7 12 0 0
SWIDTH 509 0
DWIDTH 7 0
BITMAP
38
44
38
10
38
44
44
44
7C
44
44
44
ENDCHAR
STARTCHAR AE
ENCODING 198
BBX 7 9 0 0
SWIDTH 509 0
DWIDTH 7 0
BITMAP
3C
50
50
50
7C
50
50
50
5C
ENDCHAR
STARTCHAR Ccedilla
ENCODING 199
BBX 7 12 0 -3
SWIDTH 509 0
DWIDTH 7 0
BITMAP
38
44
40
40
40
40
40
44
38
08
30
00
ENDCHAR
STARTCHAR Egrave
ENCODING 200
BBX 7 12 0 0
SWIDTH 509 0
DWIDTH 7 0
BITMAP
20
10
00
7C
40
40
40
78
40
40
40
7C
ENDCHAR
STARTCHAR Eacute
ENCODING 201
BBX 7 12 0 0
SWIDTH 509 0
DWIDTH 7 0
BITMAP
08
10
00
7C
40
40
40
78
40
40
40
7C
ENDCHAR
STARTCHAR Ecircumflex
ENCODING 202
BBX 7 12 0 0
SWIDTH 509 0
DWIDTH 7 0
BITMAP
10
28
00
7C
40
40
40
78
40
40
40
7C
ENDCHAR
STARTCHAR Edieresis
ENCODING 203
BBX 7 12 0 0
SWIDTH 509 0
DWIDTH 7 0
BITMAP
00
44
00
7C
40
40
40
78
40
40
40
7C
ENDCHAR
STARTCHAR Igrave
ENCODING 204
BBX 7 12 0 0
SWIDTH 509 0
DWIDTH 7 0
BITMAP
20
10
00
38
10
10
10
10
10
10
10
38
ENDCHAR
STARTCHAR Iacute
ENCODING 205
BBX 7 12 0 0
SWIDTH 509 0
DWIDTH 7 0
BITMAP
08
10
00
38
10
10
10
10
10
10
10
38
ENDCHAR
STARTCHAR Icircumflex
ENCODING 206
BBX 7 12 0 0
SWIDTH 509 0
DWIDTH 7 0
BITMAP
10
28
00
38
10
10
10
10
10
10
10
38
ENDCHAR
STARTCHAR Idieresis
ENCODING 207
BBX 7 12 0 0
SWIDTH 509 0
DWIDTH 7 0
BITMAP
00
44
00
38
10
10
10
10
10
10
10
38
ENDCHAR
STARTCHAR Eth
ENCODING 208
BBX 7 9 0 0
SWIDTH 509 0
DWIDTH 7 0
BITMAP
38
24
24
24
74
24
24
24
38
ENDCHAR
STARTCHAR Ntilde
ENCODING 209
BBX 7 12 0 0
SWIDTH 509 0
DWIDTH 7 0
BITMAP
34
58
00
44
64
64
54
54
4C
4C
44
44
ENDCHAR
STARTCHAR Ograve
ENCODING 210
BBX 7 12 0 0
SWIDTH 509 0
DWIDTH 7 0
BITMAP
20
10
00
38
44
44
44
44
44
44
44
38
ENDCHAR
STARTCHAR Oacute
ENCODING 211
BBX 7 12 0 0
SWIDTH 509 0
DWIDTH 7 0
BITMAP
08
10
00
38
44
44
44
44
44
44
44
38
ENDCHAR
STARTCHAR Ocircumflex
ENCODING 212
BBX 7 12 0 0
SWIDTH 509 0
DWIDTH 7 0
BITMAP
10
28
00
38
44
44
44
44
44
44
44
38
ENDCHAR
STARTCHAR Otilde
ENCODING 213
BBX 7 12 0 0
SWIDTH 509 0
DWIDTH 7 0
BITMAP
34
58
00
38
44
44
44
44
44
44
44
38
ENDCHAR
STARTCHAR Odieresis
ENCODING 214
BBX 7 12 0 0
SWIDTH 509 0
DWIDTH 7 0
BITMAP
00
44
00
38
44
44
44
44
44
44
44
38
ENDCHAR
STARTCHAR multiply
ENCODING 215
BBX 7 9 0 0
SWIDTH 509 0
DWIDTH 7 0
BITMAP
00
00
44
28
10
28
44
00
00
ENDCHAR
STARTCHAR Oslash
ENCODING 216
BBX 7 15 0 -3
SWIDTH 509 0
DWIDTH 7 0
BITMAP
00
00
00
38
46
44
4C
54
64
44
C4
38
00
00
00
ENDCHAR
STARTCHAR Ugrave
ENCODING 217
BBX 7 12 0 0
SWIDTH 509 0
DWIDTH 7 0
BITMAP
20
10
00
44
44
44
44
44
44
44
44
38
ENDCHAR
STARTCHAR Uacute
ENCODING 218
BBX 7 12 0 0
SWIDTH 509 0
DWIDTH 7 0
BITMAP
08
10
00
44
44
44
44
44
44
44
44
38
ENDCHAR
STARTCHAR Ucircumflex
ENCODING 219
BBX 7 12 0 0
SWIDTH 509 0
DWIDTH 7 0
BITMAP
10
28
00
44
44
44
44
44
44
44
44
38
ENDCHAR
STARTCHAR Udieresis
ENCODING 220
BBX 7 12 0 0
SWIDTH 509 0
DWIDTH 7 0
BITMAP
00
44
00
44
44
44
44
44
44
44
44
38
ENDCHAR
STARTCHAR Yacute
ENCODING 221
BBX 7 12 0 0
SWIDTH 509 0
DWIDTH 7 0
BITMAP
08
10
00
44
44
44
28
10
10
10
10
10
ENDCHAR
STARTCHAR Thorn
ENCODING 222
BBX 7 9 0 0
SWIDTH 509 0
DWIDTH 7 0
BITMAP
40
40
78
44
44
44
78
40
40
ENDCHAR
STARTCHAR germandbls
ENCODING 223
BBX 7 9 0 0
SWIDTH 509 0
DWIDTH 7 0
BITMAP
18
24
24
28
28
24
24
24
48
ENDCHAR
STARTCHAR agrave
ENCODING 224
BBX 7 10 0 0
SWIDTH 509 0
DWIDTH 7 0
BITMAP
20
10
00
38
04
04
3C
44
44
3C
ENDCHAR
STARTCHAR aacute
ENCODING 225
BBX 7 10 0 0
SWIDTH 509 0
DWIDTH 7 0
BITMAP
08
10
00
38
04
04
3C
44
44
3C
ENDCHAR
STARTCHAR acircumflex
ENCODING 226
BBX 7 10 0 0
SWIDTH 509 0
DWIDTH 7 0
BITMAP
10
28
00
38
04
04
3C
44
44
3C
ENDCHAR
STARTCHAR atilde
ENCODING 227
BBX 7 10 0 0
SWIDTH 509 0
DWIDTH 7 0
BITMAP
34
58
00
38
04
04
3C
44
44
3C
ENDCHAR
STARTCHAR adieresis
ENCODING 228
BBX 7 10 0 0
SWIDTH 509 0
DWIDTH 7 0
BITMAP
00
44
00
38
04
04
3C
44
44
3C
ENDCHAR
STARTCHAR aring
ENCODING 229
BBX 7 10 0 0
SWIDTH 509 0
DWIDTH 7 0
BITMAP
10
28
10
38
04
04
3C
44
44
3C
ENDCHAR
STARTCHAR ae
ENCODING 230
BBX 7 11 0 0
SWIDTH 509 0
DWIDTH 7 0
BITMAP
00
00
00
00
68
14
14
3C
50
50
3C
ENDCHAR
STARTCHAR ccedilla
ENCODING 231
BBX 7 12 0 -3
SWIDTH 509 0
DWIDTH 7 0
BITMAP
00
00
3C
40
40
40
40
40
3C
08
30
00
ENDCHAR
STARTCHAR egrave
ENCODING 232
BBX 7 10 0 0
SWIDTH 509 0
DWIDTH 7 0
BITMAP
20
10
00
38
44
44
7C
40
40
3C
ENDCHAR
STARTCHAR eacute
ENCODING 233
BBX 7 10 0 0
SWIDTH 509 0
DWIDTH 7 0
BITMAP
08
10
00
38
44
44
7C
40
40
3C
ENDCHAR
STARTCHAR ecircumflex
ENCODING 234
BBX 7 10 0 0
SWIDTH 509 0
DWIDTH 7 0
BITMAP
10
28
00
38
44
44
7C
40
40
3C
ENDCHAR
STARTCHAR edieresis
ENCODING 235
BBX 7 10 0 0
SWIDTH 509 0
DWIDTH 7 0
BITMAP
00
44
00
38
44
44
7C
40
40
3C
ENDCHAR
STARTCHAR igrave
ENCODING 236
BBX 7 10 0 0
SWIDTH 509 0
DWIDTH 7 0
BITMAP
20
10
00
30
10
10
10
10
10
38
ENDCHAR
STARTCHAR iacute
ENCODING 237
BBX 7 10 0 0
SWIDTH 509 0
DWIDTH 7 0
BITMAP
10
20
00
30
10
10
10
10
10
38
ENDCHAR
STARTCHAR icircumflex
ENCODING 238
BBX 7 10 0 0
SWIDTH 509 0
DWIDTH 7 0
BITMAP
10
28
00
30
10
10
10
10
10
38
ENDCHAR
STARTCHAR idieresis
ENCODING 239
BBX 7 10 0 0
SWIDTH 509 0
DWIDTH 7 0
BITMAP
00
44
00
30
10
10
10
10
10
38
ENDCHAR
STARTCHAR eth
ENCODING 240
BBX 7 9 0 0
SWIDTH 509 0
DWIDTH 7 0
BITMAP
2C
10
68
04
3C
44
44
44
38
ENDCHAR
STARTCHAR ntilde
ENCODING 241
BBX 7 10 0 0
SWIDTH 509 0
DWIDTH 7 0
BITMAP
34
58
00
78
44
44
44
44
44
44
ENDCHAR
STARTCHAR ograve
ENCODING 242
BBX 7 10 0 0
SWIDTH 509 0
DWIDTH 7 0
BITMAP
20
10
00
38
44
44
44
44
44
38
ENDCHAR
STARTCHAR oacute
ENCODING 243
BBX 7 10 0 0
SWIDTH 509 0
DWIDTH 7 0
BITMAP
08
10
00
38
44
44
44
44
44
38
ENDCHAR
STARTCHAR ocircumflex
ENCODING 244
BBX 7 10 0 0
SWIDTH 509 0
DWIDTH 7 0
BITMAP
10
28
00
38
44
44
44
44
44
38
ENDCHAR
STARTCHAR otilde
ENCODING 245
BBX 7 10 0 0
SWIDTH 509 0
DWIDTH 7 0
BITMAP
34
58
00
38
44
44
44
44
44
38
ENDCHAR
STARTCHAR odieresis
ENCODING 246
BBX 7 10 0 0
SWIDTH 509 0
DWIDTH 7 0
BITMAP
00
44
00
38
44
44
44
44
44
38
ENDCHAR
STARTCHAR divide
ENCODING 247
BBX 7 9 0 0
SWIDTH 509 0
DWIDTH 7 0
BITMAP
00
00
10
00
7C
00
10
00
00
ENDCHAR
STARTCHAR oslash
ENCODING 248
BBX 7 13 0 -3
SWIDTH 509 0
DWIDTH 7 0
BITMAP
00
00
00
3A
44
4C
54
64
44
B8
00
00
00
ENDCHAR
STARTCHAR ugrave
ENCODING 249
BBX 7 10 0 0
SWIDTH 509 0
DWIDTH 7 0
BITMAP
20
10
00
44
44
44
44
44
4C
34
ENDCHAR
STARTCHAR uacute
ENCODING 250
BBX 7 10 0 0
SWIDTH 509 0
DWIDTH 7 0
BITMAP
10
20
00
44
44
44
44
44
4C
34
ENDCHAR
STARTCHAR ucircumflex
ENCODING 251
BBX 7 10 0 0
SWIDTH 509 0
DWIDTH 7 0
BITMAP
10
28
00
44
44
44
44
44
4C
34
ENDCHAR
STARTCHAR udieresis
ENCODING 252
BBX 7 10 0 0
SWIDTH 509 0
DWIDTH 7 0
BITMAP
00
44
00
44
44
44
44
44
4C
34
ENDCHAR
STARTCHAR yacute
ENCODING 253
BBX 7 12 0 -2
SWIDTH 509 0
DWIDTH 7 0
BITMAP
08
10
00
44
44
44
44
44
3C
04
04
38
ENDCHAR
STARTCHAR thorn
ENCODING 254
BBX 7 11 0 -2
SWIDTH 509 0
DWIDTH 7 0
BITMAP
40
40
40
78
44
44
44
78
40
40
40
ENDCHAR
STARTCHAR ydieresis
ENCODING 255
BBX 7 12 0 -2
SWIDTH 509 0
DWIDTH 7 0
BITMAP
00
44
00
44
44
44
44
44
3C
04
04
38
ENDCHAR
STARTCHAR uni2000
ENCODING 8192
BBX 7 15 0 -3
SWIDTH 509 0
DWIDTH 7 0
BITMAP
00
00
00
00
00
00
00
00
00
00
00
00
00
00
00
ENDCHAR
STARTCHAR uni2001
ENCODING 8193
BBX 7 15 0 -3
SWIDTH 509 0
DWIDTH 7 0
BITMAP
00
00
00
00
00
00
00
00
00
00
00
00
00
00
00
ENDCHAR
STARTCHAR uni2002
ENCODING 8194
BBX 7 15 0 -3
SWIDTH 509 0
DWIDTH 7 0
BITMAP
00
00
00
00
00
00
00
00
00
00
00
00
00
00
00
ENDCHAR
STARTCHAR uni2003
ENCODING 8195
BBX 7 15 0 -3
SWIDTH 509 0
DWIDTH 7 0
BITMAP
00
00
00
00
00
00
00
00
00
00
00
00
00
00
00
ENDCHAR
STARTCHAR uni2004
ENCODING 8196
BBX 7 15 0 -3
SWIDTH 509 0
DWIDTH 7 0
BITMAP
00
00
00
00
00
00
00
00
00
00
00
00
00
00
00
ENDCHAR
STARTCHAR uni2005
ENCODING 8197
BBX 7 15 0 -3
SWIDTH 509 0
DWIDTH 7 0
BITMAP
00
00
00
00
00
00
00
00
00
00
00
00
00
00
00
ENDCHAR
STARTCHAR uni2006
ENCODING 8198
BBX 7 15 0 -3
SWIDTH 509 0
DWIDTH 7 0
BITMAP
00
00
00
00
00
00
00
00
00
00
00
00
00
00
00
ENDCHAR
STARTCHAR uni2007
ENCODING 8199
BBX 7 15 0 -3
SWIDTH 509 0
DWIDTH 7 0
BITMAP
00
00
00
00
00
00
00
00
00
00
00
00
00
00
00
ENDCHAR
STARTCHAR uni2008
ENCODING 8200
BBX 7 15 0 -3
SWIDTH 509 0
DWIDTH 7 0
BITMAP
00
00
00
00
00
00
00
00
00
00
00
00
00
00
00
ENDCHAR
STARTCHAR uni2009
ENCODING 8201
BBX 7 15 0 -3
SWIDTH 509 0
DWIDTH 7 0
BITMAP
00
00
00
00
00
00
00
00
00
00
00
00
00
00
00
ENDCHAR
STARTCHAR uni200A
ENCODING 8202
BBX 7 15 0 -3
SWIDTH 509 0
DWIDTH 7 0
BITMAP
00
00
00
00
00
00
00
00
00
00
00
00
00
00
00
ENDCHAR
STARTCHAR uni200B
ENCODING 8203
BBX 7 15 0 -3
SWIDTH 509 0
DWIDTH 7 0
BITMAP
00
00
00
00
00
00
00
00
00
00
00
00
00
00
00
ENDCHAR
STARTCHAR uni200C
ENCODING 8204
BBX 7 15 0 -3
SWIDTH 509 0
DWIDTH 7 0
BITMAP
00
00
00
00
00
00
00
00
00
00
00
00
00
00
00
ENDCHAR
STARTCHAR uni200D
ENCODING 8205
BBX 7 15 0 -3
SWIDTH 509 0
DWIDTH 7 0
BITMAP
00
00
00
00
00
00
00
00
00
00
00
00
00
00
00
ENDCHAR
STARTCHAR uni200E
ENCODING 8206
BBX 7 15 0 -3
SWIDTH 509 0
DWIDTH 7 0
BITMAP
00
00
00
00
00
00
00
00
00
00
00
00
00
00
00
ENDCHAR
STARTCHAR uni200F
ENCODING 8207
BBX 7 15 0 -3
SWIDTH 509 0
DWIDTH 7 0
BITMAP
00
00
00
00
00
00
00
00
00
00
00
00
00
00
00
ENDCHAR
STARTCHAR uni2010
ENCODING 8208
BBX 7 15 0 -3
SWIDTH 509 0
DWIDTH 7 0
BITMAP
00
00
00
00
00
00
00
38
00
00
00
00
00
00
00
ENDCHAR
STARTCHAR uni2011
ENCODING 8209
BBX 7 15 0 -3
SWIDTH 509 0
DWIDTH 7 0
BITMAP
00
00
00
00
00
00
00
38
00
00
00
00
00
00
00
ENDCHAR
STARTCHAR figuredash
ENCODING 8210
BBX 7 15 0 -3
SWIDTH 509 0
DWIDTH 7 0
BITMAP
00
00
00
00
00
00
00
7C
00
00
00
00
00
00
00
ENDCHAR
STARTCHAR endash
ENCODING 8211
BBX 7 15 0 -3
SWIDTH 509 0
DWIDTH 7 0
BITMAP
00
00
00
00
00
00
00
7C
00
00
00
00
00
00
00
ENDCHAR
STARTCHAR emdash
ENCODING 8212
BBX 7 15 0 -3
SWIDTH 509 0
DWIDTH 7 0
BITMAP
00
00
00
00
00
00
00
FE
00
00
00
00
00
00
00
ENDCHAR
STARTCHAR uni2015
ENCODING 8213
BBX 7 15 0 -3
SWIDTH 509 0
DWIDTH 7 0
BITMAP
00
00
00
00
00
00
00
FE
00
00
00
00
00
00
00
ENDCHAR
STARTCHAR uni2016
ENCODING 8214
BBX 7 15 0 -3
SWIDTH 509 0
DWIDTH 7 0
BITMAP
00
00
28
28
28
28
28
28
28
28
28
28
28
00
00
ENDCHAR
STARTCHAR underscoredbl
ENCODING 8215
BBX 7 15 0 -3
SWIDTH 509 0
DWIDTH 7 0
BITMAP
00
00
00
00
00
00
00
00
00
00
7C
00
7C
00
00
ENDCHAR
STARTCHAR quoteleft
ENCODING 8216
BBX 7 15 0 -3
SWIDTH 509 0
DWIDTH 7 0
BITMAP
00
00
00
08
10
18
18
00
00
00
00
00
00
00
00
ENDCHAR
STARTCHAR quoteright
ENCODING 8217
BBX 7 15 0 -3
SWIDTH 509 0
DWIDTH 7 0
BITMAP
00
00
00
30
30
10
20
00
00
00
00
00
00
00
00
ENDCHAR
STARTCHAR quotesinglbase
ENCODING 8218
BBX 7 15 0 -3
SWIDTH 509 0
DWIDTH 7 0
BITMAP
00
00
00
00
00
00
00
00
00
00
30
30
10
20
00
ENDCHAR
STARTCHAR quotereversed
ENCODING 8219
BBX 7 15 0 -3
SWIDTH 509 0
DWIDTH 7 0
BITMAP
00
00
00
30
30
20
10
00
00
00
00
00
00
00
00
ENDCHAR
STARTCHAR quotedblleft
ENCODING 8220
BBX 7 15 0 -3
SWIDTH 509 0
DWIDTH 7 0
BITMAP
00
00
00
24
48
6C
6C
00
00
00
00
00
00
00
00
ENDCHAR
STARTCHAR quotedblright
ENCODING 8221
BBX 7 15 0 -3
SWIDTH 509 0
DWIDTH 7 0
BITMAP
00
00
00
6C
6C
24
48
00
00
00
00
00
00
00
00
ENDCHAR
STARTCHAR quotedblbase
ENCODING 8222
BBX 7 15 0 -3
SWIDTH 509 0
DWIDTH 7 0
BITMAP
00
00
00
00
00
00
00
00
00
00
6C
6C
24
48
00
ENDCHAR
STARTCHAR uni201F
ENCODING 8223
BBX 7 15 0 -3
SWIDTH 509 0
DWIDTH 7 0
BITMAP
00
00
00
6C
6C
48
24
00
00
00
00
00
00
00
00
ENDCHAR
STARTCHAR dagger
ENCODING 8224
BBX 7 15 0 -3
SWIDTH 509 0
DWIDTH 7 0
BITMAP
00
00
10
10
7C
10
10
10
10
10
10
10
10
00
00
ENDCHAR
STARTCHAR daggerdbl
ENCODING 8225
BBX 7 15 0 -3
SWIDTH 509 0
DWIDTH 7 0
BITMAP
00
00
10
10
7C
10
7C
10
10
10
10
10
10
00
00
ENDCHAR
STARTCHAR bullet
ENCODING 8226
BBX 7 15 0 -3
SWIDTH 509 0
DWIDTH 7 0
BITMAP
00
00
00
00
00
38
7C
7C
7C
38
00
00
00
00
00
ENDCHAR
STARTCHAR uni2023
ENCODING 8227
BBX 7 15 0 -3
SWIDTH 509 0
DWIDTH 7 0
BITMAP
00
00
00
00
00
40
70
7C
70
40
00
00
00
00
00
ENDCHAR
STARTCHAR onedotenleader
ENCODING 8228
BBX 7 15 0 -3
SWIDTH 509 0
DWIDTH 7 0
BITMAP
00
00
00
00
00
00
00
00
00
00
30
30
00
00
00
ENDCHAR
STARTCHAR twodotenleader
ENCODING 8229
BBX 7 15 0 -3
SWIDTH 509 0
DWIDTH 7 0
BITMAP
00
00
00
00
00
00
00
00
00
00
6C
6C
00
00
00
ENDCHAR
STARTCHAR ellipsis
ENCODING 8230
BBX 7 15 0 -3
SWIDTH 509 0
DWIDTH 7 0
BITMAP
00
00
00
00
00
00
00
00
00
00
00
54
00
00
00
ENDCHAR
STARTCHAR uni2027
ENCODING 8231
BBX 7 15 0 -3
SWIDTH 509 0
DWIDTH 7 0
BITMAP
00
00
00
00
00
00
00
10
00
00
00
00
00
00
00
ENDCHAR
STARTCHAR uni2028
ENCODING 8232
BBX 7 15 0 -3
SWIDTH 509 0
DWIDTH 7 0
BITMAP
00
00
00
00
00
00
00
00
00
00
00
00
00
00
00
ENDCHAR
STARTCHAR uni2029
ENCODING 8233
BBX 7 15 0 -3
SWIDTH 509 0
DWIDTH 7 0
BITMAP
00
00
00
00
00
00
00
00
00
00
00
00
00
00
00
ENDCHAR
STARTCHAR uni202A
ENCODING 8234
BBX 7 15 0 -3
SWIDTH 509 0
DWIDTH 7 0
BITMAP
00
00
00
00
00
00
00
00
00
00
00
00
00
00
00
ENDCHAR
STARTCHAR uni202B
ENCODING 8235
BBX 7 15 0 -3
SWIDTH 509 0
DWIDTH 7 0
BITMAP
00
00
00
00
00
00
00
00
00
00
00
00
00
00
00
ENDCHAR
STARTCHAR uni202C
ENCODING 8236
BBX 7 15 0 -3
SWIDTH 509 0
DWIDTH 7 0
BITMAP
00
00
00
00
00
00
00
00
00
00
00
00
00
00
00
ENDCHAR
STARTCHAR uni202D
ENCODING 8237
BBX 7 15 0 -3
SWIDTH 509 0
DWIDTH 7 0
BITMAP
00
00
00
00
00
00
00
00
00
00
00
00
00
00
00
ENDCHAR
STARTCHAR uni202E
ENCODING 8238
BBX 7 15 0 -3
SWIDTH 509 0
DWIDTH 7 0
BITMAP
00
00
00
00
00
00
00
00
00
00
00
00
00
00
00
ENDCHAR
STARTCHAR uni202F
ENCODING 8239
BBX 7 15 0 -3
SWIDTH 509 0
DWIDTH 7 0
BITMAP
00
00
00
00
00
00
00
00
00
00
00
00
00
00
00
ENDCHAR
STARTCHAR perthousand
ENCODING 8240
BBX 7 15 0 -3
SWIDTH 509 0
DWIDTH 7 0
BITMAP
00
00
60
A0
C0
08
10
20
40
80
36
5A
6C
00
00
ENDCHAR
STARTCHAR uni2031
ENCODING 8241
BBX 7 15 0 -3
SWIDTH 509 0
DWIDTH 7 0
BITMAP
00
00
60
A0
C0
08
10
20
40
80
2A
2A
2A
00
00
ENDCHAR
STARTCHAR minute
ENCODING 8242
BBX 7 15 0 -3
SWIDTH 509 0
DWIDTH 7 0
BITMAP
00
00
00
08
10
20
00
00
00
00
00
00
00
00
00
ENDCHAR
STARTCHAR second
ENCODING 8243
BBX 7 15 0 -3
SWIDTH 509 0
DWIDTH 7 0
BITMAP
00
00
00
14
28
50
00
00
00
00
00
00
00
00
00
ENDCHAR
STARTCHAR uni2034
ENCODING 8244
BBX 7 12 0 -3
SWIDTH 509 0
DWIDTH 7 0
BITMAP
2A
54
A8
00
00
00
00
00
00
00
00
00
ENDCHAR
STARTCHAR uni2035
ENCODING 8245
BBX 7 15 0 -3
SWIDTH 509 0
DWIDTH 7 0
BITMAP
00
00
00
20
10
08
00
00
00
00
00
00
00
00
00
ENDCHAR
STARTCHAR uni2036
ENCODING 8246
BBX 7 15 0 -3
SWIDTH 509 0
DWIDTH 7 0
BITMAP
00
00
00
50
28
14
00
00
00
00
00
00
00
00
00
ENDCHAR
STARTCHAR uni2037
ENCODING 8247
BBX 7 15 0 -3
SWIDTH 509 0
DWIDTH 7 0
BITMAP
00
00
00
A8
54
2A
00
00
00
00
00
00
00
00
00
ENDCHAR
STARTCHAR uni2038
ENCODING 8248
BBX 7 15 0 -3
SWIDTH 509 0
DWIDTH 7 0
BITMAP
00
00
00
00
00
00
00
00
00
00
00
10
28
44
00
ENDCHAR
STARTCHAR guilsinglleft
ENCODING 8249
BBX 7 15 0 -3
SWIDTH 509 0
DWIDTH 7 0
BITMAP
00
00
00
04
08
10
20
40
20
10
08
04
00
00
00
ENDCHAR
STARTCHAR guilsinglright
ENCODING 8250
BBX 7 15 0 -3
SWIDTH 509 0
DWIDTH 7 0
BITMAP
00
00
00
40
20
10
08
04
08
10
20
40
00
00
00
ENDCHAR
STARTCHAR uni203B
ENCODING 8251
BBX 7 15 0 -3
SWIDTH 509 0
DWIDTH 7 0
BITMAP
00
00
00
00
92
44
28
92
28
44
92
00
00
00
00
ENDCHAR
STARTCHAR exclamdbl
ENCODING 8252
BBX 7 15 0 -3
SWIDTH 509 0
DWIDTH 7 0
BITMAP
00
00
00
48
48
48
48
48
48
00
00
48
00
00
00
ENDCHAR
STARTCHAR uni203D
ENCODING 8253
BBX 7 15 0 -3
SWIDTH 509 0
DWIDTH 7 0
BITMAP
00
00
00
38
54
14
18
10
10
00
00
10
00
00
00
ENDCHAR
STARTCHAR uni203E
ENCODING 8254
BBX 7 15 0 -3
SWIDTH 509 0
DWIDTH 7 0
BITMAP
00
00
00
7C
00
00
00
00
00
00
00
00
00
00
00
ENDCHAR
STARTCHAR uni203F
ENCODING 8255
BBX 7 15 0 -3
SWIDTH 509 0
DWIDTH 7 0
BITMAP
00
00
00
00
00
00
00
00
00
00
82
44
38
00
00
ENDCHAR
STARTCHAR uni2040
ENCODING 8256
BBX 7 15 0 -3
SWIDTH 509 0
DWIDTH 7 0
BITMAP
00
00
38
44
82
00
00
00
00
00
00
00
00
00
00
ENDCHAR
STARTCHAR uni2041
ENCODING 8257
BBX 7 15 0 -3
SWIDTH 509 0
DWIDTH 7 0
BITMAP
00
00
00
00
00
00
00
00
00
04
08
10
28
44
00
ENDCHAR
STARTCHAR uni2042
ENCODING 8258
BBX 7 11 0 0
SWIDTH 509 0
DWIDTH 7 0
BITMAP
10
38
10
38
10
00
44
EE
44
EE
44
ENDCHAR
STARTCHAR uni2043
ENCODING 8259
BBX 7 15 0 -3
SWIDTH 509 0
DWIDTH 7 0
BITMAP
00
00
00
00
00
00
00
38
00
00
00
00
00
00
00
ENDCHAR
STARTCHAR fraction
ENCODING 8260
BBX 7 15 0 -3
SWIDTH 509 0
DWIDTH 7 0
BITMAP
00
00
00
00
00
04
08
10
20
40
00
00
00
00
00
ENDCHAR
STARTCHAR uni2045
ENCODING 8261
BBX 7 15 0 -3
SWIDTH 509 0
DWIDTH 7 0
BITMAP
00
00
78
60
60
60
60
78
60
60
60
60
78
00
00
ENDCHAR
STARTCHAR uni2046
ENCODING 8262
BBX 7 15 0 -3
SWIDTH 509 0
DWIDTH 7 0
BITMAP
00
00
3C
0C
0C
0C
0C
3C
0C
0C
0C
0C
3C
00
00
ENDCHAR
STARTCHAR uni2047
ENCODING 8263
BBX 7 15 0 -3
SWIDTH 509 0
DWIDTH 7 0
BITMAP
00
00
00
48
B4
24
48
48
48
00
00
48
00
00
00
ENDCHAR
STARTCHAR uni2048
ENCODING 8264
BBX 7 15 0 -3
SWIDTH 509 0
DWIDTH 7 0
BITMAP
00
00
00
24
54
14
24
24
24
00
00
24
00
00
00
ENDCHAR
STARTCHAR uni2049
ENCODING 8265
BBX 7 15 0 -3
SWIDTH 509 0
DWIDTH 7 0
BITMAP
00
00
00
48
54
44
48
48
48
00
00
48
00
00
00
ENDCHAR
STARTCHAR uni204A
ENCODING 8266
BBX 7 15 0 -3
SWIDTH 509 0
DWIDTH 7 0
BITMAP
00
00
00
00
00
00
00
00
00
00
00
00
00
00
00
ENDCHAR
STARTCHAR uni204B
ENCODING 8267
BBX 7 15 0 -3
SWIDTH 509 0
DWIDTH 7 0
BITMAP
00
00
00
78
54
54
54
78
50
50
50
50
00
00
00
ENDCHAR
STARTCHAR uni204C
ENCODING 8268
BBX 7 15 0 -3
SWIDTH 509 0
DWIDTH 7 0
BITMAP
00
00
00
00
00
3C
7C
7C
7C
3C
00
00
00
00
00
ENDCHAR
STARTCHAR uni204D
ENCODING 8269
BBX 7 15 0 -3
SWIDTH 509 0
DWIDTH 7 0
BITMAP
00
00
00
00
00
78
7C
7C
7C
78
00
00
00
00
00
ENDCHAR
STARTCHAR uni204E
ENCODING 8270
BBX 7 15 0 -3
SWIDTH 509 0
DWIDTH 7 0
BITMAP
00
00
00
00
00
00
00
10
54
38
54
10
00
00
00
ENDCHAR
STARTCHAR uni204F
ENCODING 8271
BBX 7 15 0 -3
SWIDTH 509 0
DWIDTH 7 0
BITMAP
00
00
00
00
00
30
30
00
00
00
30
30
20
10
00
ENDCHAR
STARTCHAR uni2050
ENCODING 8272
BBX 7 15 0 -3
SWIDTH 509 0
DWIDTH 7 0
BITMAP
00
00
38
44
82
00
00
00
00
00
82
44
38
00
00
ENDCHAR
STARTCHAR uni2051
ENCODING 8273
BBX 7 15 0 -3
SWIDTH 509 0
DWIDTH 7 0
BITMAP
00
00
10
54
38
54
10
00
10
54
38
54
10
00
00
ENDCHAR
STARTCHAR uni2052
ENCODING 8274
BBX 7 15 0 -3
SWIDTH 509 0
DWIDTH 7 0
BITMAP
00
00
00
00
00
44
08
10
20
44
00
00
00
00
00
ENDCHAR
STARTCHAR uni2053
ENCODING 8275
BBX 7 15 0 -3
SWIDTH 509 0
DWIDTH 7 0
BITMAP
00
00
00
00
00
00
62
92
8C
00
00
00
00
00
00
ENDCHAR
STARTCHAR uni2054
ENCODING 8276
BBX 7 15 0 -3
SWIDTH 509 0
DWIDTH 7 0
BITMAP
00
00
00
00
00
00
00
00
00
00
38
44
82
00
00
ENDCHAR
STARTCHAR uni2055
ENCODING 8277
BBX 7 15 0 -3
SWIDTH 509 0
DWIDTH 7 0
BITMAP
00
00
00
00
10
54
38
FE
38
54
10
00
00
00
00
ENDCHAR
STARTCHAR uni2056
ENCODING 8278
BBX 7 15 0 -3
SWIDTH 509 0
DWIDTH 7 0
BITMAP
00
00
00
00
00
0C
0C
60
60
0C
0C
00
00
00
00
ENDCHAR
STARTCHAR uni2057
ENCODING 8279
BBX 7 15 0 -3
SWIDTH 509 0
DWIDTH 7 0
BITMAP
AA
AA
00
00
00
00
00
00
00
00
00
00
00
00
00
ENDCHAR
STARTCHAR uni2058
ENCODING 8280
BBX 7 13 0 -3
SWIDTH 509 0
DWIDTH 7 0
BITMAP
00
00
30
30
00
CC
CC
00
30
30
00
00
00
ENDCHAR
STARTCHAR uni2058
ENCODING 8280
BBX 7 15 0 -3
SWIDTH 509 0
DWIDTH 7 0
BITMAP
00
00
00
00
CC
CC
00
30
30
00
CC
CC
00
00
00
ENDCHAR
STARTCHAR uni205A
ENCODING 8282
BBX 7 15 0 -3
SWIDTH 509 0
DWIDTH 7 0
BITMAP
00
00
00
30
30
00
00
00
00
00
30
30
00
00
00
ENDCHAR
STARTCHAR uni205B
ENCODING 8283
BBX 7 15 0 -3
SWIDTH 509 0
DWIDTH 7 0
BITMAP
00
00
00
00
10
00
00
82
00
00
10
00
00
00
00
ENDCHAR
STARTCHAR uni205C
ENCODING 8284
BBX 7 15 0 -3
SWIDTH 509 0
DWIDTH 7 0
BITMAP
00
00
00
00
10
54
10
FE
10
54
10
00
00
00
00
ENDCHAR
STARTCHAR uni205D
ENCODING 8285
BBX 7 15 0 -3
SWIDTH 509 0
DWIDTH 7 0
BITMAP
00
00
00
00
30
30
00
30
30
00
30
30
00
00
00
ENDCHAR
STARTCHAR uni205E
ENCODING 8286
BBX 7 15 0 -3
SWIDTH 509 0
DWIDTH 7 0
BITMAP
00
00
10
00
00
10
00
00
10
00
00
10
00
00
00
ENDCHAR
STARTCHAR uni205F
ENCODING 8287
BBX 7 1 0 0
SWIDTH 509 0
DWIDTH 7 0
BITMAP
00
ENDCHAR
ENDFONT
